<?xml version="1.0" standalone="no"?>
<!DOCTYPE svg PUBLIC "-//W3C//DTD SVG 20010904//EN"
 "http://www.w3.org/TR/2001/REC-SVG-20010904/DTD/svg10.dtd">
<svg version="1.0" xmlns="http://www.w3.org/2000/svg"
 width="512.000000pt" height="512.000000pt" viewBox="0 0 512.000000 512.000000"
 preserveAspectRatio="xMidYMid meet">

<g transform="translate(0.000000,512.000000) scale(0.100000,-0.100000)"
fill="#000000" stroke="none">
<path d="M1515 4054 c-11 -2 -45 -9 -75 -15 -277 -53 -561 -233 -729 -463
-176 -240 -261 -543 -231 -823 49 -466 329 -842 756 -1012 193 -78 238 -83
767 -88 257 -3 467 -6 467 -7 0 -1 -22 -114 -50 -251 -27 -137 -50 -261 -50
-276 0 -36 43 -86 80 -94 18 -4 40 0 62 11 18 9 261 153 540 320 278 167 515
304 526 304 44 0 193 31 267 56 305 101 555 318 700 604 141 280 165 623 64
924 -140 418 -514 735 -952 806 -59 9 -2095 13 -2142 4z m2228 -227 c181 -56
327 -147 453 -279 117 -123 200 -272 244 -433 28 -102 38 -304 20 -413 -44
-277 -202 -522 -435 -677 -137 -91 -286 -145 -450 -163 l-86 -10 -436 -261
c-240 -144 -437 -260 -438 -259 -2 2 14 90 36 197 47 236 48 259 12 293 l-28
26 -545 5 c-370 3 -561 8 -595 17 -333 79 -577 264 -715 545 -111 226 -135
475 -69 715 103 369 424 656 809 723 14 3 500 4 1080 3 l1055 -1 88 -28z"/>
</g>
</svg>
